<?xml version="1.0" encoding="utf-8"?>
<!-- Generator: Adobe Illustrator 18.0.0, SVG Export Plug-In . SVG Version: 6.00 Build 0)  -->
<!DOCTYPE svg PUBLIC "-//W3C//DTD SVG 1.1//EN" "http://www.w3.org/Graphics/SVG/1.1/DTD/svg11.dtd">
<svg version="1.1" id="Layer_1" xmlns="http://www.w3.org/2000/svg" xmlns:xlink="http://www.w3.org/1999/xlink" x="0px" y="0px"
	 viewBox="0 0 300 300" enable-background="new 0 0 300 300" xml:space="preserve">
<g id="Captions">
</g>
<g id="Layer_7" display="none">
</g>
<g id="Your_Icon">
	<polygon points="220.6,115.4 184.8,115.4 184.8,45.1 112.4,45.1 112.4,115.4 79.4,115.4 150.6,186.2 	"/>
	<polygon points="221,177.4 221,212.8 79.4,212.8 79.4,177.4 44.1,177.4 44.1,248.1 255.9,248.1 255.9,177.4 	"/>
</g>
<g id="Layer_6" display="none">
	<path display="inline" d="M198.9,157.8c-5.1,0-9,4.2-9,9c0,5.1,4.2,9,9,9c5.1,0,9-4.2,9-9C208.2,161.7,204,157.8,198.9,157.8z"/>
	<circle display="inline" cx="121.2" cy="166.8" r="9"/>
	<polygon display="inline" points="114.6,148.5 114.6,148.5 205.5,148.5 205.5,139.8 122.1,139.8 118.8,123.3 206.4,123.3 
		233.7,54.9 104.7,54.9 99.9,30.6 99.3,30.6 99.3,30.6 74.1,30.6 74.1,39.9 92.4,39.9 	"/>
</g>
<g id="Layer_5" display="none">
	<polygon display="inline" points="211.5,50.1 211.5,23.4 198.3,23.4 198.3,50.1 198.3,65.7 211.5,65.7 	"/>
	<path display="inline" d="M216,50.1v15.6v4.5h-4.5h-13.2h-4.5v-4.5V50.1H114v15.6v4.5h-4.5H96h-4.5v-4.5V50.1H73.8v133.2H234V50.1
		H216z M149.1,139.5c-1.2,3.9-2.7,6.9-4.5,9s-4.2,3.9-6.6,4.8c-2.4,0.9-5.1,1.5-8.1,1.5c-2.7,0-5.4-0.6-7.8-1.5s-4.8-2.7-6.6-4.8
		c-1.8-2.1-3.3-5.1-4.5-9s-1.5-8.4-1.5-14.1c0-5.4,0.6-9.9,1.5-13.8c1.2-3.6,2.7-6.6,4.5-9c1.8-2.1,3.9-3.9,6.6-4.8
		c2.4-0.9,5.1-1.5,7.8-1.5c2.7,0,5.4,0.6,8.1,1.5c2.4,0.9,4.8,2.7,6.6,4.8c1.8,2.1,3.3,5.1,4.5,9c1.2,3.6,1.5,8.4,1.5,13.8
		C150.9,131.1,150.3,135.6,149.1,139.5z M188.7,153.6h-11.4v-36.3h-14.1v-8.7c2.1,0,3.9,0,5.7-0.3s3.6-0.9,5.1-1.8s2.7-2.1,3.6-3.6
		c0.9-1.5,1.8-3.3,2.1-5.4h9L188.7,153.6L188.7,153.6z"/>
	<polygon display="inline" points="109.5,50.1 109.5,23.4 96,23.4 96,50.1 96,65.7 109.5,65.7 	"/>
	<path display="inline" d="M138.9,117.9c-0.3-1.5-0.6-3-0.9-4.2c-0.3-1.5-0.9-2.7-1.5-3.9c-0.6-1.2-1.5-2.1-2.7-2.7
		s-2.4-0.9-3.9-0.9s-2.7,0.3-3.9,0.9c-0.9,0.6-1.8,1.5-2.7,2.7c-0.6,1.2-1.2,2.4-1.5,3.9s-0.6,2.7-0.9,4.2s-0.3,2.7-0.3,4.2
		s0,2.4,0,3.6c0,1.5,0,3.6,0.3,5.7c0,2.4,0.3,4.5,0.9,6.6s1.5,3.9,2.7,5.4s3,2.1,5.4,2.1c2.4,0,4.2-0.6,5.4-2.1s2.1-3.3,2.7-5.4
		c0.6-2.1,0.9-4.2,0.9-6.6s0.3-4.2,0.3-5.7c0-0.9,0-2.1,0-3.6S139.2,119.1,138.9,117.9z"/>
</g>
<g id="Layer_4" display="none">
	<path display="inline" d="M233.1,164.4l-48.3-48.3c6.3-9.3,9.9-20.7,9.9-32.7c0-33-26.7-60-60-60c-33,0-60,27-60,60s26.7,60,60,60
		c11.4,0,21.9-3.3,30.9-8.7l48.6,48.6L233.1,164.4z M101.4,83.4c0-18.3,15-33.3,33.3-33.3s33.3,15,33.3,33.3s-15,33.3-33.3,33.3
		S101.4,101.7,101.4,83.4z"/>
</g>
</svg>
